<svg version="1.1" id="Layer_1" xmlns="http://www.w3.org/2000/svg" xmlns:xlink="http://www.w3.org/1999/xlink" x="0px" y="0px"
	 width="100%" viewBox="0 0 1024 848" enable-background="new 0 0 1024 848" xml:space="preserve">
<path fill="#000000" opacity="1.000000" stroke="none" 
	d="
M590.549805,766.752258 
	C570.265259,771.731689 550.376953,776.586609 530.498779,781.482544 
	C520.800354,783.871216 511.097137,786.247498 501.443878,788.809509 
	C497.494751,789.857483 493.826599,788.858643 490.131714,787.944397 
	C449.083313,777.788086 408.045319,767.589905 367.007080,757.392578 
	C360.120972,755.681458 360.135956,755.475159 364.123535,749.449829 
	C386.476593,715.673706 410.721436,683.229309 434.123505,650.193604 
	C438.544708,643.952454 440.240326,637.870483 439.679199,630.290405 
	C437.540283,601.397034 435.604706,572.486755 434.529602,543.522400 
	C434.085327,531.552856 432.644897,519.622681 431.838165,507.662415 
	C431.627625,504.541718 430.280090,503.301178 427.297180,502.961609 
	C414.241791,501.475616 401.205475,499.823120 388.153503,498.305847 
	C376.914948,496.999359 365.656982,495.858337 354.422485,494.519226 
	C347.988525,493.752319 347.619507,494.047943 347.100403,500.279907 
	C344.239685,534.623474 341.312805,568.961426 338.413971,603.301758 
	C338.315918,604.463440 338.262177,605.629395 338.208710,606.794250 
	C337.705994,617.741821 336.980988,618.174255 326.213287,617.004272 
	C301.072113,614.272522 275.909973,611.732117 250.751709,609.159485 
	C237.346115,607.788757 223.928879,606.531982 210.521179,605.181458 
	C206.261444,604.752441 205.656174,603.517212 207.809418,599.687744 
	C222.016968,574.420105 236.265396,549.175537 250.436569,523.887573 
	C251.835922,521.390503 253.762283,519.924133 256.414886,518.981079 
	C281.524689,510.053589 306.466553,500.646515 331.911377,492.678772 
	C333.973846,492.032928 335.993103,491.233612 337.994720,490.413544 
	C339.893890,489.635437 340.747406,488.336151 340.441467,486.100342 
	C335.883240,452.789459 331.390564,419.469574 326.866882,386.153931 
	C326.736755,385.195465 326.436768,384.260040 326.158508,383.067657 
	C322.189026,383.495209 319.255402,385.862762 316.152222,387.531921 
	C287.974701,402.688110 259.145599,416.553192 230.565689,430.909454 
	C208.386826,442.050323 186.095428,452.967133 163.858429,463.992371 
	C162.508881,464.661530 161.067627,465.655670 159.684891,464.561707 
	C158.304367,463.469452 158.971130,461.824036 159.252518,460.357178 
	C167.247284,418.683289 175.373154,377.033875 183.174881,335.323853 
	C188.587189,306.388428 194.647598,277.567413 198.937622,248.427597 
	C199.131729,247.109207 199.235565,245.759079 200.492889,244.828888 
	C202.656921,244.363419 203.721176,246.147934 205.063110,247.256836 
	C228.338165,266.490204 249.687027,287.820038 271.601715,308.530731 
	C291.098175,326.956085 310.478821,345.504791 329.793518,364.120544 
	C332.752014,366.972015 336.220154,367.459290 339.859863,367.644135 
	C368.626129,369.104828 397.396759,370.480042 426.164429,371.913727 
	C429.985657,372.104156 433.796967,372.487671 437.614502,372.758636 
	C440.517700,372.964752 441.893005,372.013977 441.443848,368.707001 
	C437.904755,342.650116 434.512817,316.573242 431.014740,290.510712 
	C429.642670,280.287842 427.990631,270.101227 426.720337,259.866577 
	C426.218842,255.826294 424.628265,253.383820 420.683716,251.733521 
	C381.651093,235.403351 342.692902,218.895081 303.719543,202.423355 
	C285.922516,194.901627 268.134735,187.357956 250.355774,179.793655 
	C248.883438,179.167252 247.082336,178.890533 246.446838,176.929245 
	C247.019241,174.839874 248.997131,174.517700 250.600922,173.834518 
	C301.020081,152.356659 351.835602,131.855545 402.788116,111.676994 
	C432.518860,99.902817 462.188324,87.984779 492.169830,76.856514 
	C495.352264,75.675278 498.125519,75.806343 501.281799,77.052734 
	C569.756042,104.092484 638.337952,130.861374 706.414795,158.897568 
	C718.581970,163.908401 730.783752,168.835175 742.950806,173.846390 
	C744.598877,174.525162 746.526428,174.841614 747.541260,176.646118 
	C747.303284,178.596558 745.553650,178.684845 744.263428,179.235031 
	C691.558167,201.709778 638.841187,224.157089 586.137817,246.636169 
	C582.922241,248.007675 579.932129,250.046555 576.615112,251.012375 
	C570.008118,252.936081 568.040527,257.370758 567.253052,263.811096 
	C563.678101,293.050537 559.657715,322.235626 555.778320,351.437714 
	C555.055115,356.881683 554.319519,362.326141 553.445557,367.747192 
	C552.869324,371.321686 553.832825,373.077148 557.826416,372.878662 
	C574.789795,372.035553 591.764709,371.423065 608.727417,370.567841 
	C625.017212,369.746552 641.292480,368.627808 657.585083,367.879150 
	C661.154907,367.715118 663.798340,366.725494 666.370483,364.156036 
	C704.567566,325.998840 743.728394,288.843170 783.274780,252.092224 
	C786.391785,249.195648 789.497803,246.200851 794.436584,243.698730 
	C806.768799,318.333893 823.173035,391.409546 837.364502,464.649567 
	C835.376160,466.026794 834.223450,465.158783 833.088440,464.562622 
	C789.129883,441.473663 743.835327,421.046844 699.975037,397.762756 
	C692.470398,393.778748 684.937744,389.843262 677.513489,385.713684 
	C673.561951,383.515717 671.855957,384.579102 671.226257,388.919647 
	C667.976135,411.323181 664.554382,433.701843 661.311951,456.106445 
	C659.882935,465.980804 658.840576,475.911194 657.406799,485.784760 
	C656.894775,489.310669 658.221252,490.858368 661.451599,491.954498 
	C683.532898,499.447052 705.409729,507.583893 727.667664,514.498657 
	C740.450195,518.469788 749.204712,524.914490 755.241760,537.556702 
	C765.273560,558.564453 777.231628,578.668640 787.782471,599.469910 
	C790.350525,604.532837 789.959290,604.869568 784.440857,605.366455 
	C761.899475,607.396057 739.368286,609.541260 716.838928,611.702026 
	C699.613464,613.354248 682.393372,615.065186 665.178162,616.821228 
	C662.102295,617.134949 661.013672,615.770996 660.772034,612.905945 
	C658.449829,585.367249 656.063232,557.834045 653.705200,530.298340 
	C652.796082,519.681335 651.798767,509.069763 651.080933,498.439575 
	C650.834534,494.789917 649.135803,493.977386 645.908203,494.334717 
	C623.245972,496.843597 600.576660,499.289276 577.909973,501.758148 
	C577.579285,501.794189 577.254883,501.889893 576.924072,501.922516 
	C563.460388,503.251556 565.017212,501.902435 564.085449,516.286743 
	C562.385498,542.530151 560.327026,568.750183 558.445740,594.981934 
	C557.409851,609.425964 556.448730,623.875488 555.405334,638.319031 
	C555.245728,640.528564 556.298706,642.124329 557.552063,643.724304 
	C584.493225,678.117126 609.786865,713.677673 633.213745,750.559021 
	C634.166626,752.059143 635.666626,753.367859 635.157166,756.173157 
	C620.601990,759.620850 605.776123,763.132751 590.549805,766.752258 
M557.700684,491.530060 
	C555.655212,473.517151 553.595215,455.505920 551.568481,437.490906 
	C549.652344,420.459595 547.704407,403.431244 545.934387,386.384613 
	C545.604187,383.204498 544.306702,382.038361 541.205994,382.121368 
	C536.713501,382.241730 532.213684,382.105194 527.717224,382.057220 
	C503.907837,381.803162 480.095093,381.695007 456.291687,381.167877 
	C450.911194,381.048737 448.892059,382.898041 448.548004,388.065125 
	C448.050934,395.530304 447.088104,402.965973 446.263733,410.407532 
	C443.407837,436.187439 440.591003,461.971985 437.609253,487.737396 
	C436.837860,494.403076 437.084534,494.970947 443.702637,495.032043 
	C475.838257,495.328766 507.973846,495.631195 540.109558,495.921478 
	C544.605896,495.962097 549.102966,495.932159 553.599426,495.963531 
	C556.048828,495.980652 557.962341,495.439209 557.700684,491.530060 
M454.194946,192.599487 
	C447.054901,211.386398 439.914856,230.173325 432.702271,249.151123 
	C475.834717,249.151123 518.278442,249.151123 561.611450,249.151123 
	C537.877747,193.866867 517.930298,138.375046 497.384918,83.116364 
	C496.986969,83.198273 496.589020,83.280190 496.191071,83.362099 
	C482.274384,119.529747 468.357666,155.697388 454.194946,192.599487 
z"/>
</svg>